<svg xmlns="http://www.w3.org/2000/svg" id="Layer_1" x="0" y="0" version="1.1" viewBox="0 0 448.6 413.4" xml:space="preserve">
  <defs/>
  <style>
    .st0{fill:#fff}.st1{fill:#ffcf02}.st2{fill:#3c3c3b}
  </style>
  <path d="M239.1 214.9h-29.5c-2 0-3.1 2-1.8 3.3l14.8 14.1c.9.9 2.6.9 3.5 0l14.8-14.1c1.3-1.2.2-3.3-1.8-3.3zM165.8 158.1c-3.7 0-7.5 1-11.2 2.8-15.3 7.4-29.1 27.8-29.1 43.2 0 2.9.4 5.6 1.1 8.3.5 2.2 1.3 4.3 2.2 6.4 5.5 11.8 17.4 20 31.2 20 19.1 0 34.6-15.5 34.6-34.6 0-8.4-1.9-18.4-5.7-26.9-4.7-10.8-12.5-19.2-23.1-19.2zm5.5 64.6c-2.2 0-4.2-1.7-5.8-4.4-.3-.5-.6-1-.9-1.6-1.6-3.6-2.7-8.5-2.7-13.9 0-7.6 2-14.1 4.9-17.5 1.3-1.6 2.8-2.5 4.5-2.5 5.1 0 9.2 8.6 9.4 19.4v.6c0 10.9-4.2 19.9-9.4 19.9zM209.1 283.3a15.2 15.2 0 1030.4 0v-20.4h-30.3l-.1 20.4z" class="st0"/>
  <path d="M110.4 229.5c-3.8 3.8-.1 13.7 8.2 22.1 8.4 8.4 18.2 12 22.1 8.2 3.8-3.8.1-13.7-8.2-22.1-8.4-8.3-18.3-12-22.1-8.2z" class="st1"/>
  <path d="M123.2 112.4c-21.5-29.9-42.9-53.5-48.4-49.6-14.3 10.2-13.6 64 6.6 102.1 10-19.6 24.2-37.8 41.8-52.5z" class="st0"/>
  <path d="M398.2 28c-7.6-5.3-16.9-8-27.7-8-23.9 0-56.5 14.4-83.2 35.7-20.4-7.6-41.6-11.5-63.2-11.5-21.5 0-42.7 4-63.2 11.8-26.7-21.2-59.2-35.4-83-35.4-10.8 0-20.2 2.7-27.9 8.2-36.2 25.6-34.6 105.3-7.9 154-4.4 14.9-6.6 29.8-6.5 44.3C35.8 318 120.5 392 224.4 392h.4c104.2-.2 188.8-74.5 188.6-165.7 0-14.6-2.3-29.4-6.7-44.3 26.5-48.8 27.9-128.5-8.5-154zm-15.3 198.5c0 74.6-71 135-158.6 135s-158.6-60.4-158.6-135c0-16.2 3.5-32.6 9.7-48.3-1.2-1.7-2.4-3.3-3.5-5.1-26-40.3-23.2-106.7-4.2-120.1 13.6-9.6 58.3 8.4 87.8 38.2 20.8-10.5 44.2-16.9 68.9-16.9s48 6.3 68.9 16.9c29.5-29.8 74.2-47.8 87.8-38.2 18.9 13.3 21.8 79.8-4.2 120.2-1.1 1.8-2.3 3.4-3.5 5.1 5.9 15.7 9.5 32 9.5 48.2z" class="st1"/>
  <path d="M373.8 62.8c-5.5-3.9-26.9 19.7-48.4 49.6 17.6 14.8 31.8 32.9 41.8 52.6 20.2-38.2 20.9-92.1 6.6-102.2z" class="st0"/>
  <path d="M316.2 237.7c-8.4 8.4-12 18.2-8.2 22.1 3.8 3.8 13.7.1 22.1-8.2s12-18.2 8.2-22.1c-3.9-3.8-13.8-.1-22.1 8.2z" class="st1"/>
  <path d="M319.8 218.8c1-2 1.7-4.1 2.2-6.4.7-2.7 1.1-5.4 1.1-8.3 0-15.4-13.7-35.8-29.1-43.2-3.7-1.8-7.5-2.8-11.2-2.8-10.7 0-18.4 8.4-23.2 19.1-3.8 8.5-5.7 18.5-5.7 26.9 0 19.1 15.5 34.6 34.6 34.6 13.9.1 25.8-8.1 31.3-19.9zm-35.8-2.2c-.3.6-.6 1.1-.9 1.6-1.6 2.7-3.6 4.4-5.8 4.4-5.2 0-9.4-8.9-9.4-20v-.6c.1-10.8 4.3-19.4 9.4-19.4 1.6 0 3.1 1 4.5 2.5 2.9 3.4 4.9 9.9 4.9 17.5 0 5.5-1 10.4-2.7 14z" class="st0"/>
  <path d="M380.9 53c-13.6-9.6-58.3 8.4-87.8 38.2-20.8-10.5-44.2-16.9-68.9-16.9s-48 6.3-68.9 16.9C126 61.4 81.2 43.5 67.7 53c-18.9 13.3-21.8 79.8 4.2 120.2 1.1 1.8 2.3 3.4 3.5 5.1-6.2 15.7-9.7 32-9.7 48.3 0 74.6 71 135 158.6 135s158.6-60.4 158.6-135c0-16.2-3.5-32.6-9.7-48.3 1.2-1.7 2.4-3.3 3.5-5.1 26-40.4 23.2-106.8 4.2-120.2zM81.4 164.9c-20.2-38.1-20.9-92-6.6-102.2 5.5-3.9 26.9 19.7 48.4 49.6-17.6 14.8-31.8 33-41.8 52.6zm59.2 94.9c-3.8 3.8-13.7.1-22.1-8.2s-12-18.2-8.2-22.1c3.8-3.8 13.7-.1 22.1 8.2s12.1 18.3 8.2 22.1zm19.4-21c-13.9 0-25.7-8.2-31.2-20-1-2-1.7-4.1-2.2-6.4-.7-2.7-1.1-5.4-1.1-8.3 0-15.4 13.7-35.8 29.1-43.2 3.7-1.8 7.5-2.8 11.2-2.8 10.7 0 18.4 8.4 23.2 19.1 3.8 8.5 5.7 18.5 5.7 26.9a34.78 34.78 0 01-34.7 34.7zm79.5 44.5a15.2 15.2 0 11-30.4 0v-20.4h30.3l.1 20.4zm1.3-65L226 232.4c-.9.9-2.6.9-3.5 0l-14.8-14.1c-1.3-1.3-.3-3.3 1.8-3.3H239c2.1-.1 3.2 2 1.8 3.3zm13.2-14.1c0-8.4 1.9-18.4 5.7-26.9 4.8-10.7 12.5-19.1 23.2-19.1 3.7 0 7.5 1 11.2 2.8 15.3 7.4 29.1 27.8 29.1 43.2 0 2.9-.4 5.6-1.1 8.3-.5 2.2-1.3 4.3-2.2 6.4-5.5 11.8-17.4 20-31.2 20a34.72 34.72 0 01-34.7-34.7zm76 47.4c-8.4 8.4-18.2 12-22.1 8.2-3.8-3.8-.1-13.7 8.2-22.1 8.4-8.4 18.2-12 22.1-8.2 3.9 3.8.2 13.7-8.2 22.1zm37.2-86.7c-10-19.7-24.2-37.8-41.8-52.6 21.5-29.9 42.9-53.5 48.4-49.6 14.3 10.2 13.6 64.1-6.6 102.2z" class="st2"/>
  <path d="M171.3 182.7c-1.6 0-3.1 1-4.5 2.5-2.9 3.4-4.9 9.9-4.9 17.5 0 5.4 1 10.3 2.7 13.9.3.6.6 1.1.9 1.6 1.6 2.7 3.6 4.4 5.8 4.4 5.2 0 9.4-8.9 9.4-20v-.6c-.2-10.6-4.3-19.3-9.4-19.3zM277.3 182.7c-5.1 0-9.2 8.6-9.4 19.4v.6c0 11 4.2 20 9.4 20 2.2 0 4.2-1.7 5.8-4.4.3-.5.6-1 .9-1.6 1.6-3.6 2.7-8.5 2.7-13.9 0-7.6-2-14.1-4.9-17.5-1.4-1.6-2.9-2.6-4.5-2.6z" class="st2"/>
</svg>
